<svg width="376" height="68" viewBox="0 0 376 68" fill="none" xmlns="http://www.w3.org/2000/svg">
<path d="M164.122 35.0806C135.568 35.0806 127.455 11.607 129.19 1.19678C135.789 1.19678 141.722 2.65623 146.989 5.57506C152.319 8.4939 156.507 12.5549 159.553 17.758C162.599 22.8977 164.122 28.6719 164.122 35.0806Z" fill="#FFFEF2"/>
<path d="M69.1955 0.571075V67.1967H62.4377V13.8962L36.2634 58.7257H32.9321L6.75774 14.1817V67.1967H0V0.571075H5.80595L34.7405 49.9692L63.3895 0.571075H69.1955Z" fill="#FFFEF2"/>
<path d="M130.023 67.7678C123.424 67.7678 117.427 66.3084 112.034 63.3895C106.704 60.4072 102.516 56.3463 99.47 51.2066C96.4877 46.0669 94.9966 40.2927 94.9966 33.8839C94.9966 27.4751 96.4877 21.7009 99.47 16.5612C102.516 11.4215 106.704 7.39227 112.034 4.47343C117.427 1.49114 123.424 0 130.023 0C136.622 0 142.555 1.45942 147.821 4.37826C153.151 7.29709 157.339 11.3581 160.385 16.5612C163.431 21.7009 164.953 27.4751 164.953 33.8839C164.953 40.2927 163.431 46.0986 160.385 51.3017C157.339 56.4414 153.151 60.4707 147.821 63.3895C142.555 66.3084 136.622 67.7678 130.023 67.7678ZM130.023 61.486C135.289 61.486 140.048 60.3121 144.3 57.9643C148.551 55.5531 151.882 52.2535 154.293 48.0656C156.705 43.8143 157.91 39.087 157.91 33.8839C157.91 28.6808 156.705 23.9852 154.293 19.7973C151.882 15.546 148.551 12.2464 144.3 9.89866C140.048 7.48745 135.289 6.28184 130.023 6.28184C124.756 6.28184 119.965 7.48745 115.651 9.89866C111.399 12.2464 108.036 15.546 105.561 19.7973C103.15 23.9852 101.945 28.6808 101.945 33.8839C101.945 39.087 103.15 43.8143 105.561 48.0656C108.036 52.2535 111.399 55.5531 115.651 57.9643C119.965 60.3121 124.756 61.486 130.023 61.486Z" fill="#FFFEF2"/>
<path d="M219.859 67.7678C213.26 67.7678 207.264 66.3084 201.87 63.3895C196.54 60.4072 192.353 56.3463 189.307 51.2066C186.325 46.0669 184.833 40.2927 184.833 33.8839C184.833 27.4751 186.325 21.7009 189.307 16.5612C192.353 11.4215 196.54 7.39227 201.87 4.47343C207.264 1.49114 213.26 0 219.859 0C226.459 0 232.391 1.45942 237.658 4.37826C242.988 7.29709 247.176 11.3581 250.222 16.5612C253.267 21.7009 254.79 27.4751 254.79 33.8839C254.79 40.2927 253.267 46.0986 250.222 51.3017C247.176 56.4414 242.988 60.4707 237.658 63.3895C232.391 66.3084 226.459 67.7678 219.859 67.7678ZM219.859 61.486C225.126 61.486 229.885 60.3121 234.136 57.9643C238.388 55.5531 241.719 52.2535 244.13 48.0656C246.541 43.8143 247.747 39.087 247.747 33.8839C247.747 28.6808 246.541 23.9852 244.13 19.7973C241.719 15.546 238.388 12.2464 234.136 9.89866C229.885 7.48745 225.126 6.28184 219.859 6.28184C214.593 6.28184 209.802 7.48745 205.487 9.89866C201.236 12.2464 197.873 15.546 195.398 19.7973C192.987 23.9852 191.781 28.6808 191.781 33.8839C191.781 39.087 192.987 43.8143 195.398 48.0656C197.873 52.2535 201.236 55.5531 205.487 57.9643C209.802 60.3121 214.593 61.486 219.859 61.486Z" fill="#FFFEF2"/>
<path d="M336.251 0.571075V67.1967H330.445L287.615 13.1348V67.1967H280.571V0.571075H286.377L329.303 54.633V0.571075H336.251Z" fill="#FFFEF2"/>
<path d="M367.991 0.571075H375.035V67.1967H367.991V0.571075Z" fill="#FFFEF2"/>
<path d="M129.506 2.70959C127.771 13.1199 131.44 33.9404 159.994 33.9404" stroke="white" stroke-width="4.46154"/>
<path d="M190.968 35.0806C219.522 35.0806 227.635 11.607 225.9 1.19678C219.3 1.19678 213.367 2.65623 208.101 5.57506C202.771 8.4939 198.583 12.5549 195.537 17.758C192.491 22.8977 190.968 28.6719 190.968 35.0806Z" fill="#FFFEF2"/>
</svg>
