<svg width="25" height="25" viewBox="0 0 25 25" fill="none" xmlns="http://www.w3.org/2000/svg">
<g filter="url(#filter0_b)">
<circle cx="12.5" cy="12.5" r="12.5" fill="url(#paint0_radial)" fill-opacity="0.7"/>
<circle cx="12.5" cy="12.5" r="12" stroke="url(#paint1_linear)"/>
</g>
<path d="M12.5 10.1873C13.0172 10.1873 13.4364 10.6065 13.4364 11.1237V18.1359C13.4364 18.6531 13.0172 19.0723 12.5 19.0723C11.9828 19.0723 11.5636 18.6531 11.5636 18.1359V11.1237C11.5636 10.6065 11.9828 10.1873 12.5 10.1873ZM13.75 7.50436C13.75 7.67276 13.7152 7.83246 13.6455 7.98345C13.5816 8.13444 13.4916 8.268 13.3754 8.38415C13.2593 8.49448 13.1228 8.58449 12.966 8.65418C12.815 8.71806 12.6524 8.75 12.4782 8.75C12.3098 8.75 12.1501 8.71806 11.9991 8.65418C11.8539 8.58449 11.7262 8.49448 11.6159 8.38415C11.5055 8.268 11.4155 8.13444 11.3458 7.98345C11.2819 7.83246 11.25 7.67276 11.25 7.50436C11.25 7.33014 11.2819 7.16754 11.3458 7.01655C11.4155 6.86556 11.5055 6.7349 11.6159 6.62457C11.7262 6.50842 11.8539 6.41841 11.9991 6.35453C12.1501 6.28484 12.3098 6.25 12.4782 6.25C12.6524 6.25 12.815 6.28484 12.966 6.35453C13.1228 6.41841 13.2593 6.50842 13.3754 6.62457C13.4916 6.7349 13.5816 6.86556 13.6455 7.01655C13.7152 7.16754 13.75 7.33014 13.75 7.50436Z" fill="#FFFEF2"/>
<defs>
<filter id="filter0_b" x="-20" y="-20" width="65" height="65" filterUnits="userSpaceOnUse" color-interpolation-filters="sRGB">
<feFlood flood-opacity="0" result="BackgroundImageFix"/>
<feGaussianBlur in="BackgroundImage" stdDeviation="10"/>
<feComposite in2="SourceAlpha" operator="in" result="effect1_backgroundBlur"/>
<feBlend mode="normal" in="SourceGraphic" in2="effect1_backgroundBlur" result="shape"/>
</filter>
<radialGradient id="paint0_radial" cx="0" cy="0" r="1" gradientUnits="userSpaceOnUse" gradientTransform="translate(0.441411) rotate(45.5103) scale(35.0446 66.8923)">
<stop stop-color="white" stop-opacity="0.7"/>
<stop offset="0.0001" stop-color="#152D68" stop-opacity="0.7"/>
<stop offset="1" stop-color="#152D68" stop-opacity="0.1"/>
</radialGradient>
<linearGradient id="paint1_linear" x1="2.77898" y1="-10.9138" x2="24.7603" y2="-2.57399" gradientUnits="userSpaceOnUse">
<stop offset="0.0104167" stop-color="#FFEEEE" stop-opacity="0.68"/>
<stop offset="0.078125" stop-color="#FF7375" stop-opacity="0.82"/>
<stop offset="0.739583" stop-color="#E373FF" stop-opacity="0.68"/>
<stop offset="1" stop-color="#9773FF" stop-opacity="0.76"/>
</linearGradient>
</defs>
</svg>
